<svg width="119" height="40" viewBox="0 0 119 40" fill="none" xmlns="http://www.w3.org/2000/svg">
<path d="M33.9238 4.10239C33.4695 3.60575 32.8058 3.59149 32.0495 3.57523C31.9638 3.57339 31.877 3.57153 31.7891 3.56893C31.7222 3.56673 31.6483 3.56758 31.5711 3.56846C31.2644 3.57198 30.9056 3.57609 30.7249 3.39212C30.5153 3.17883 30.5352 2.76663 30.5516 2.42635C30.5568 2.31882 30.5616 2.21841 30.5588 2.1338C30.5293 1.34332 30.4679 0.503628 30.0405 0.22292C29.7182 0.0123098 28.7539 0.041487 27.8646 0.0683954C27.5763 0.0771184 27.2959 0.085603 27.0478 0.085603H8.11896C7.73784 0.085603 7.33834 0.0634489 6.94581 0.0416813C6.18095 -0.000733803 5.44255 -0.0416812 4.91819 0.085603C4.15721 0.271231 4.10568 1.24667 4.05716 2.16519L4.05455 2.21461C4.01381 2.97288 3.75058 3.55799 2.87815 3.49906C1.86346 3.43161 0.85378 3.41035 0.395006 4.06594C-0.146817 4.84161 -0.0350723 5.65358 0.16508 7.10792C0.193671 7.31567 0.224065 7.53652 0.254617 7.77225H34.2164C34.2358 7.59995 34.2565 7.42986 34.2769 7.26253C34.4359 5.95406 34.5745 4.81402 33.9238 4.10239Z" fill="#8047F8"/>
<path fill-rule="evenodd" clip-rule="evenodd" d="M2.89946 9.21467C3.42988 14.3395 3.95451 19.4701 4.47914 24.6009L4.47946 24.604C4.76432 27.3898 5.04918 30.1757 5.33498 32.9606H6.41861C6.49245 33.3965 6.57695 33.9347 6.66603 34.5021C6.84685 35.6539 7.04662 36.9264 7.21457 37.7083H7.33443C8.43821 37.42 16.0688 35.0916 16.0722 25.8218C16.0708 25.7954 16.072 25.7689 16.0758 25.7427H14.1907C14.0994 25.7421 14.0109 25.7203 13.9389 25.6808C13.8669 25.6413 13.8152 25.5861 13.7919 25.5238C13.6082 25.1999 13.4601 24.8664 13.3489 24.5264C12.2398 24.9736 11.3591 25.6564 10.8323 26.4775C10.3322 25.6365 10.2667 24.6983 10.6474 23.8267C11.028 22.9551 11.8305 22.2057 12.9147 21.7093C12.9286 19.0043 14.3473 16.3968 16.9022 14.3804L16.9421 14.3553C17.0163 14.3095 17.1114 14.284 17.21 14.2834C17.267 14.2838 17.3233 14.2925 17.3753 14.309C17.428 14.3257 17.4751 14.35 17.5136 14.3804C20.0983 16.3996 21.5095 19.0321 21.4657 21.7531C22.5701 22.2356 23.3889 22.9845 23.7703 23.8608C24.1516 24.7371 24.0695 25.6813 23.5392 26.5181C23.0152 25.6957 22.1338 25.0123 21.0226 24.5671C20.9547 24.8966 20.8298 25.219 20.6505 25.527C20.5884 25.6583 20.4644 25.7427 20.3403 25.7427H18.3299C18.333 25.7584 18.3353 25.7742 18.3366 25.7901L18.3373 25.7937V25.8014C18.3381 25.815 18.3381 25.8287 18.3374 25.8424C18.3649 35.3783 26.4779 37.5428 27.1617 37.7083H27.3956C27.4554 36.9572 27.6498 35.9208 27.8393 34.9104C27.9699 34.2142 28.0981 33.5302 28.1784 32.9606H29.2746C29.6254 29.4527 29.9863 25.9546 30.3472 22.4564L30.3474 22.4545L30.3475 22.4535C30.8091 17.9789 31.2707 13.5042 31.7114 9.0087H2.96966C2.88693 9.02024 2.89257 9.11685 2.89946 9.21467ZM17.21 14.2834L17.2079 14.2834H17.2123L17.21 14.2834Z" fill="#8047F8"/>
<path d="M43.8572 5.69821C43.8572 4.43316 44.4677 3.45274 45.6887 2.75696C46.9319 2.04537 48.7967 1.68958 51.283 1.68958C52.9258 1.68958 54.3244 1.80027 55.4788 2.02165V5.29498C54.2356 5.02615 53.0035 4.89174 51.7825 4.89174C50.5837 4.89174 49.8067 4.99453 49.4515 5.2001C49.0963 5.38985 48.9187 5.67449 48.9187 6.05401V14.0238C48.9187 14.7829 49.7512 15.1624 51.4162 15.1624C53.1034 15.1624 54.4909 15.0438 55.5787 14.8066V18.0088C54.3799 18.246 52.9258 18.3646 51.2164 18.3646C48.7301 18.3646 46.8764 18.0167 45.6554 17.3209C44.4566 16.6251 43.8572 15.6447 43.8572 14.3796V5.69821Z" fill="#403937"/>
<path d="M65.3058 7.95159C65.3058 7.35069 64.8396 7.05024 63.9072 7.05024C62.9748 7.05024 62.5086 7.35069 62.5086 7.95159V14.5457C62.5086 15.1466 62.9748 15.447 63.9072 15.447C64.8396 15.447 65.3058 15.1466 65.3058 14.5457V7.95159ZM57.5803 7.83299C57.5803 6.63119 58.102 5.69821 59.1454 5.03406C60.2109 4.35409 61.7982 4.01411 63.9072 4.01411C66.0162 4.01411 67.5923 4.35409 68.6357 5.03406C69.7013 5.69821 70.2341 6.63119 70.2341 7.83299V14.6643C70.2341 15.8661 69.7013 16.807 68.6357 17.4869C67.5923 18.1511 66.0162 18.4832 63.9072 18.4832C61.7982 18.4832 60.2109 18.1511 59.1454 17.4869C58.102 16.807 57.5803 15.8661 57.5803 14.6643V7.83299Z" fill="#403937"/>
<path d="M73.4707 4.08527C73.4707 1.41284 75.4464 0.0766322 79.398 0.0766322C79.9086 0.0766322 80.5191 0.116165 81.2295 0.195231V2.94672C80.8743 2.9151 80.5413 2.89928 80.2305 2.89928C79.0983 2.89928 78.5322 3.2788 78.5322 4.03783V4.25131H81.2295V7.05024H78.5322V18.246H73.4707V7.05024H71.5726V4.25131H73.4707V4.08527Z" fill="#403937"/>
<path d="M83.2914 4.08527C83.2914 1.41284 85.2672 0.0766322 89.2188 0.0766322C89.7293 0.0766322 90.3398 0.116165 91.0502 0.195231V2.94672C90.695 2.9151 90.362 2.89928 90.0512 2.89928C88.919 2.89928 88.353 3.2788 88.353 4.03783V4.25131H91.0502V7.05024H88.353V18.246H83.2914V7.05024H81.3934V4.25131H83.2914V4.08527Z" fill="#403937"/>
<path d="M92.2131 14.261V7.83299C92.2131 6.63119 92.7348 5.69821 93.7782 5.03406C94.8216 4.35409 96.3978 4.01411 98.5067 4.01411C102.569 4.01411 104.601 5.28707 104.601 7.83299V12.6481H97.0415V13.9764C97.0415 14.4508 97.2191 14.7908 97.5743 14.9964C97.9517 15.1861 98.762 15.281 100.005 15.281C101.271 15.281 102.647 15.1229 104.134 14.8066V17.9376C102.58 18.2381 100.915 18.3883 99.1394 18.3883C94.5219 18.3883 92.2131 17.0125 92.2131 14.261ZM97.0415 9.92033H99.9719V7.88043C99.9719 7.27953 99.4835 6.97908 98.5067 6.97908C97.5299 6.97908 97.0415 7.27953 97.0415 7.88043V9.92033Z" fill="#403937"/>
<path d="M106.587 14.261V7.83299C106.587 6.63119 107.108 5.69821 108.152 5.03406C109.195 4.35409 110.771 4.01411 112.88 4.01411C116.943 4.01411 118.974 5.28707 118.974 7.83299V12.6481H111.415V13.9764C111.415 14.4508 111.593 14.7908 111.948 14.9964C112.325 15.1861 113.135 15.281 114.379 15.281C115.644 15.281 117.02 15.1229 118.508 14.8066V17.9376C116.954 18.2381 115.289 18.3883 113.513 18.3883C108.895 18.3883 106.587 17.0125 106.587 14.261ZM111.415 9.92033H114.345V7.88043C114.345 7.27953 113.857 6.97908 112.88 6.97908C111.903 6.97908 111.415 7.27953 111.415 7.88043V9.92033Z" fill="#403937"/>
<path d="M51.8722 26.9797C51.8722 25.8119 51.0069 25.2281 49.2765 25.2281H46.5169V35.874H49.2765C51.0069 35.874 51.8722 35.2771 51.8722 34.0834V26.9797ZM44.577 24.0214H49.3858C50.843 24.0214 51.945 24.2874 52.6918 24.8194C53.4387 25.3513 53.8121 26.065 53.8121 26.9602V34.1224C53.8121 35.0436 53.4478 35.7702 52.7192 36.3022C51.9906 36.8341 50.8977 37.1001 49.4404 37.1001H44.577V24.0214Z" fill="#403937"/>
<path d="M57.0046 34.2781V28.8675C57.0046 27.9463 57.3689 27.2132 58.0975 26.6683C58.8443 26.1104 59.9645 25.8314 61.4582 25.8314C62.9518 25.8314 64.0538 26.1104 64.7642 26.6683C65.4928 27.2132 65.8571 27.9463 65.8571 28.8675V32.254H58.9172V34.2197C58.9172 34.8036 59.1722 35.2382 59.6822 35.5237C60.1922 35.8091 60.9846 35.9518 62.0593 35.9518C63.134 35.9518 64.2451 35.8351 65.3926 35.6015V36.886C64.4819 37.0936 63.3981 37.1974 62.1412 37.1974C58.7168 37.1974 57.0046 36.2243 57.0046 34.2781ZM58.9172 31.1057H63.9992V28.8675C63.9992 27.6479 63.1522 27.0381 61.4582 27.0381C59.7642 27.0381 58.9172 27.6479 58.9172 28.8675V31.1057Z" fill="#403937"/>
<path d="M69.1781 23.0872H71.118V37.1001H69.1781V23.0872Z" fill="#403937"/>
<path d="M75.8444 24.7804C75.0612 24.7804 74.6696 24.482 74.6696 23.8852C74.6696 23.2883 75.0612 22.9899 75.8444 22.9899C76.6459 22.9899 77.0466 23.2883 77.0466 23.8852C77.0466 24.482 76.6459 24.7804 75.8444 24.7804ZM74.8881 26.1039H76.828V37.1001H74.8881V26.1039Z" fill="#403937"/>
<path d="M86.8277 26.026H88.795L85.3523 37.1001H82.62L79.1774 26.026H81.1719L82.6747 31.1057L84.0135 36.127C84.5599 33.9732 85.498 30.6062 86.8277 26.026Z" fill="#403937"/>
<path d="M90.8644 34.2781V28.8675C90.8644 27.9463 91.2287 27.2132 91.9573 26.6683C92.7042 26.1104 93.8244 25.8314 95.3181 25.8314C96.8117 25.8314 97.9137 26.1104 98.6241 26.6683C99.3527 27.2132 99.717 27.9463 99.717 28.8675V32.254H92.777V34.2197C92.777 34.8036 93.032 35.2382 93.5421 35.5237C94.0521 35.8091 94.8445 35.9518 95.9191 35.9518C96.9938 35.9518 98.105 35.8351 99.2525 35.6015V36.886C98.3418 37.0936 97.258 37.1974 96.0011 37.1974C92.5767 37.1974 90.8644 36.2243 90.8644 34.2781ZM92.777 31.1057H97.8591V28.8675C97.8591 27.6479 97.0121 27.0381 95.3181 27.0381C93.624 27.0381 92.777 27.6479 92.777 28.8675V31.1057Z" fill="#403937"/>
<path d="M108.065 25.9676H108.748V27.2911H107.819C107.164 27.2911 106.572 27.4143 106.043 27.6609C105.88 27.7387 105.524 27.9139 104.978 28.1864V37.1001H103.038V26.026H104.896V26.8629C104.951 26.837 105.087 26.7656 105.306 26.6488C105.543 26.5321 105.679 26.4672 105.716 26.4542C105.77 26.4283 105.889 26.3764 106.071 26.2985C106.271 26.2207 106.417 26.1752 106.508 26.1623C106.617 26.1363 106.763 26.1039 106.945 26.065C107.218 26.0001 107.592 25.9676 108.065 25.9676Z" fill="#403937"/>
<path d="M117.06 26.026H119L114.738 40H112.88L113.727 37.1001H112.77L109.382 26.026H111.35L112.989 31.5339L114.191 36.127C114.556 34.596 114.956 33.0649 115.393 31.5339L117.06 26.026Z" fill="#403937"/>
</svg>
